Coordinates
version=1
nRows=31
nColumns=38
inDegrees=no

Units are S.I. units (second, meters, Newtons, ...)
If the header above contains a line with 'inDegrees', this indicates whether rotational values are in degrees (yes) or radians (no).

endheader
time	pelvis_tilt	pelvis_list	pelvis_rotation	pelvis_tx	pelvis_ty	pelvis_tz	hip_flexion_r	hip_adduction_r	hip_rotation_r	knee_angle_r	ankle_angle_r	subtalar_angle_r	mtp_angle_r	hip_flexion_l	hip_adduction_l	hip_rotation_l	knee_angle_l	ankle_angle_l	subtalar_angle_l	mtp_angle_l	lumbar_extension	lumbar_bending	lumbar_rotation	arm_flex_r	arm_add_r	arm_rot_r	elbow_flex_r	pro_sup_r	wrist_flex_r	wrist_dev_r	arm_flex_l	arm_add_l	arm_rot_l	elbow_flex_l	pro_sup_l	wrist_flex_l	wrist_dev_l
1.02	-0.314869	1.33686	-1.22374	0.849833	0.731248	0.917966	0.100192	0.0720208	-0.380198	0.265573	-0.0360299	0	0	-0.32388	-0.266458	-0.280574	0.835213	-0.188587	0	0	-0.33139	0.105949	-0.0749473	0.570528	-0.561438	0.388393	1.00086	0.747685	0	0	0.433794	-0.363784	0.132962	1.31282	1.05399	0	0
1.03	-0.335022	1.33321	-1.20547	0.84702	0.71913	0.918955	0.0891911	0.0817016	-0.379856	0.275857	-0.0230712	0	0	-0.284583	-0.287146	-0.264983	0.902392	-0.26238	0	0	-0.334931	0.110135	-0.0710079	0.569324	-0.563329	0.389687	1.00403	0.748181	0	0	0.432647	-0.367145	0.134998	1.31835	1.05376	0	0
1.04	-0.34399	1.32958	-1.19901	0.844145	0.707295	0.92019	0.0758479	0.0896935	-0.375896	0.281686	-0.0188602	0	0	-0.245505	-0.302473	-0.246699	0.965343	-0.329346	0	0	-0.340711	0.112231	-0.0687836	0.571889	-0.564408	0.395444	1.00793	0.738451	0	0	0.439056	-0.357085	0.00479721	1.31748	1.5708	0	0
1.05	-0.346711	1.32612	-1.2009	0.841273	0.695736	0.921677	0.0617717	0.0962183	-0.367625	0.286258	-0.0146487	0	0	-0.209095	-0.311809	-0.227877	1.02177	-0.372839	0	0	-0.346339	0.109696	-0.058906	0.566576	-0.568396	0.389563	1.01283	0.732743	0	0	0.433969	-0.373689	0.143223	1.33052	1.03951	0	0
1.06	-0.338728	1.32319	-1.21443	0.838401	0.684315	0.923433	0.0469047	0.0998515	-0.356252	0.290432	-0.00862341	0	0	-0.176038	-0.313737	-0.208599	1.07128	-0.387643	0	0	-0.353049	0.105006	-0.0509335	0.565388	-0.570933	0.38922	1.01551	0.732996	0	0	0.435666	-0.375224	0.146167	1.33547	1.03739	0	0
1.07	-0.325129	1.32111	-1.23407	0.835616	0.673024	0.925406	0.0315082	0.101552	-0.34352	0.292912	-0.00297444	0	0	-0.143278	-0.311467	-0.189684	1.11948	-0.372097	0	0	-0.359186	0.0982666	-0.0424799	0.564107	-0.573595	0.389119	1.01756	0.728278	0	0	0.437445	-0.375184	0.147543	1.33885	1.0415	0	0
1.08	-0.308537	1.32007	-1.25709	0.832905	0.66184	0.927521	0.0157948	0.10179	-0.331906	0.293607	0.00158722	0	0	-0.109148	-0.306582	-0.170608	1.16828	-0.332715	0	0	-0.364081	0.0901674	-0.0337552	0.562688	-0.575766	0.388063	1.01852	0.72465	0	0	0.43896	-0.373766	0.147807	1.34074	1.04325	0	0
1.09	-0.285627	1.31948	-1.28679	0.830147	0.650811	0.92989	-0.00163322	0.100119	-0.321192	0.291124	0.00609582	0	0	-0.0761004	-0.29545	-0.14886	1.21141	-0.286034	0	0	-0.369357	0.0810997	-0.0278313	0.565352	-0.575394	0.39094	1.01793	0.71821	0	0	0.446803	-0.357209	0.0122908	1.33351	1.5708	0	0
1.1	-0.263168	1.3186	-1.31718	0.827456	0.639907	0.932433	-0.0213134	0.0983125	-0.310605	0.284213	0.00960216	0	0	-0.0457866	-0.283717	-0.131942	1.24639	-0.245567	0	0	-0.373182	0.0697779	-0.0153529	0.560439	-0.577619	0.383545	1.01728	0.715028	0	0	0.442596	-0.368754	0.147109	1.33952	1.05424	0	0
1.11	-0.239573	1.3179	-1.34905	0.82464	0.629118	0.935055	-0.0425273	0.0963434	-0.301248	0.273435	0.0122617	0	0	-0.0168763	-0.271724	-0.118586	1.27383	-0.213882	0	0	-0.377845	0.0602559	-0.00893044	0.564562	-0.576377	0.387804	1.01487	0.712525	0	0	0.44988	-0.351426	0.00932	1.33095	1.5708	0	0
1.12	-0.22226	1.31811	-1.37529	0.821945	0.618369	0.937486	-0.063309	0.0955184	-0.291366	0.260358	0.0150811	0	0	0.0128686	-0.263592	-0.111295	1.2973	-0.186673	0	0	-0.379056	0.0498911	0.00442537	0.55955	-0.578952	0.381498	1.01433	0.713717	0	0	0.446339	-0.363079	0.147012	1.33387	1.05817	0	0
1.13	-0.204686	1.3192	-1.4016	0.819189	0.60765	0.939795	-0.0840838	0.0944685	-0.28023	0.245425	0.0192975	0	0	0.0426676	-0.255238	-0.105224	1.31576	-0.160631	0	0	-0.380171	0.0418046	0.0112001	0.563182	-0.57785	0.385376	1.01301	0.715238	0	0	0.453505	-0.346124	0.0110469	1.32316	1.5708	0	0
1.14	-0.188383	1.32073	-1.42666	0.816534	0.596954	0.941966	-0.105076	0.0935715	-0.267812	0.228351	0.0227626	0	0	0.0718013	-0.247321	-0.101621	1.32873	-0.137289	0	0	-0.379513	0.0330407	0.0207418	0.5626	-0.57845	0.385089	1.01258	0.715507	0	0	0.454923	-0.343714	0.0112056	1.31866	1.5708	0	0
1.15	-0.174979	1.32215	-1.44864	0.813956	0.586191	0.944054	-0.128482	0.0939574	-0.252674	0.205689	0.0190726	0	0	0.0992417	-0.240873	-0.1006	1.33592	-0.116202	0	0	-0.377503	0.0240058	0.033607	0.556488	-0.581088	0.378763	1.01372	0.719288	0	0	0.450898	-0.356566	0.150407	1.3205	1.05582	0	0
1.16	-0.15855	1.32501	-1.47304	0.81144	0.5754	0.945867	-0.147951	0.091821	-0.244161	0.188566	0.0151859	0	0	0.126962	-0.233957	-0.101632	1.33833	-0.0965213	0	0	-0.374427	0.0155044	0.0417469	0.555352	-0.58141	0.378287	1.01442	0.718713	0	0	0.45046	-0.356297	0.151292	1.31803	1.05626	0	0
1.17	-0.0929489	1.35382	-1.53569	0.811528	0.564055	0.944368	-0.132518	0.0709372	-0.254645	0.188755	0.031368	0	0	0.189963	-0.203898	-0.0902658	1.34603	-0.0757439	0	0	-0.341571	-0.000470576	0.0357213	0.549211	-0.5804	0.376201	1.01361	0.72243	0	0	0.442757	-0.354798	0.148787	1.31519	1.06306	0	0
1.18	-0.0717261	1.3559	-1.56448	0.809068	0.553246	0.945996	-0.153028	0.0689285	-0.245469	0.170246	0.0313233	0	0	0.213836	-0.198021	-0.0965675	1.3383	-0.0586442	0	0	-0.338789	-0.00909376	0.0423224	0.54947	-0.579576	0.377925	1.01354	0.722528	0	0	0.44047	-0.356793	0.148661	1.31597	1.0577	0	0
1.19	-0.0585488	1.35786	-1.58596	0.806542	0.542518	0.947467	-0.174999	0.0692715	-0.232114	0.148035	0.0289269	0	0	0.236215	-0.195488	-0.10559	1.32668	-0.0428738	0	0	-0.336952	-0.0147268	0.0467119	0.554669	-0.577558	0.384496	1.01404	0.721683	0	0	0.443468	-0.345048	0.0127781	1.31048	1.5708	0	0
1.2	-0.10276	1.33348	-1.56387	0.801173	0.532609	0.952068	-0.232625	0.0861342	-0.192162	0.108838	0.00611202	0	0	0.218139	-0.218969	-0.134403	1.3009	-0.0295476	0	0	-0.364683	-0.016101	0.0722714	0.55801	-0.578243	0.381522	1.01553	0.728336	0	0	0.441999	-0.363989	0.151005	1.32285	1.03284	0	0
1.21	-0.0918575	1.33552	-1.58449	0.798678	0.52206	0.953194	-0.252642	0.0841517	-0.178062	0.0902561	0.00256393	0	0	0.23698	-0.218033	-0.148862	1.28121	-0.0180598	0	0	-0.362513	-0.0230766	0.0802079	0.559516	-0.577705	0.382864	1.01754	0.721542	0	0	0.439415	-0.365647	0.147359	1.32487	1.05172	0	0
1.22	0.0233351	1.34595	-1.71374	0.79782	0.509624	0.953458	-0.2579	0.0493003	-0.174576	0.0835354	0.0124843	0	0	0.255827	-0.184212	-0.174817	1.24783	-0.0102144	0	0	-0.344483	-0.0521827	0.0871546	0.553206	-0.57641	0.380479	1.01822	0.721663	0	0	0.428621	-0.364446	0.142917	1.32465	1.0458	0	0
1.23	-0.0111528	1.36505	-1.66764	0.797415	0.499942	0.951423	-0.259494	0.0659754	-0.17292	0.0649223	0.00655942	0	0	0.310064	-0.197158	-0.168526	1.24197	-0.00138259	0	0	-0.328001	-0.0391201	0.0755227	0.558536	-0.575983	0.3857	1.02299	0.725743	0	0	0.433138	-0.351769	0.00298781	1.32157	1.5708	0	0
1.24	0.0074657	1.36568	-1.69271	0.795667	0.489299	0.952038	-0.280134	0.0622365	-0.161515	0.0479457	0.00387606	0	0	0.32276	-0.195611	-0.187494	1.20962	0.00687174	0	0	-0.326871	-0.0459985	0.0813702	0.558172	-0.576553	0.384166	1.02653	0.726672	0	0	0.431686	-0.352906	0.00189188	1.324	1.5708	0	0
1.25	0.00194655	1.32508	-1.7359	0.787688	0.478901	0.958496	-0.344071	0.0490183	-0.118411	0.031522	-0.0103288	0	0	0.253548	-0.213148	-0.265653	1.14189	0.0122724	0	0	-0.369052	-0.069825	0.12561	0.563043	-0.574593	0.382979	1.02704	0.72738	0	0	0.435535	-0.356138	0.00241219	1.32614	1.5708	0	0
1.26	0.0117784	1.32597	-1.75341	0.785911	0.468754	0.95871	-0.358279	0.0441351	-0.112405	0.0249847	-0.00986482	0	0	0.263133	-0.211256	-0.286159	1.10159	0.0190645	0	0	-0.367292	-0.0769259	0.135466	0.561247	-0.576338	0.37867	1.02826	0.729156	0	0	0.42918	-0.37058	0.137239	1.33652	1.04741	0	0
1.27	0.0436753	1.37532	-1.74541	0.790922	0.458537	0.951817	-0.313375	0.0528886	-0.15499	0.034462	0.0139273	0	0	0.363539	-0.188789	-0.2371	1.09222	0.0269883	0	0	-0.316738	-0.0601526	0.0969482	0.563261	-0.577189	0.386072	1.02903	0.72887	0	0	0.429379	-0.35451	-0.000596745	1.32899	1.5708	0	0
1.28	0.0634372	1.37535	-1.77131	0.789466	0.448214	0.95156	-0.32622	0.0466726	-0.15042	0.0326698	0.0225278	0	0	0.367682	-0.183736	-0.258609	1.04221	0.0328777	0	0	-0.315225	-0.0680649	0.10518	0.561435	-0.578555	0.381922	1.02949	0.732382	0	0	0.424098	-0.368329	0.132924	1.33875	1.04522	0	0
1.29	0.136897	1.36022	-1.86731	0.786724	0.436066	0.953278	-0.35417	0.0183787	-0.13839	0.0292695	0.0337967	0	0	0.336811	-0.166723	-0.310184	0.96846	0.0374371	0	0	-0.322013	-0.0936797	0.122957	0.558905	-0.576576	0.379396	1.02834	0.733991	0	0	0.420674	-0.367213	0.129965	1.33771	1.04722	0	0
1.3	0.0998344	1.37689	-1.81707	0.787059	0.427315	0.94995	-0.348221	0.0353209	-0.143923	0.0331868	0.0454399	0	0	0.373121	-0.170437	-0.300847	0.931239	0.0428003	0	0	-0.311297	-0.0792631	0.114175	0.564738	-0.579693	0.382557	1.03136	0.729059	0	0	0.426551	-0.367552	0.131304	1.33929	1.04616	0	0
1.31	0.0743491	1.33513	-1.8383	0.779995	0.416988	0.954898	-0.404937	0.0167692	-0.106787	0.0311798	0.0438752	0	0	0.292652	-0.180532	-0.38711	0.841261	0.0453586	0	0	-0.353458	-0.101312	0.155967	0.572096	-0.578531	0.383898	1.02919	0.728765	0	0	0.432588	-0.367993	0.130448	1.33919	1.04664	0	0
1.32	0.0236055	1.3574	-1.76507	0.781934	0.407871	0.9503	-0.392535	0.0408899	-0.121576	0.0384293	0.0576178	0	0	0.338195	-0.182981	-0.362701	0.804589	0.0537826	0	0	-0.337588	-0.0776955	0.139364	0.578794	-0.58238	0.388446	1.03092	0.728318	0	0	0.436717	-0.366418	0.12997	1.34014	1.04643	0	0
